<?xml version="1.0" encoding="UTF-8"?>
<svg width="16px" height="16px" viewBox="0 0 16 16" version="1.1" xmlns="http://www.w3.org/2000/svg" xmlns:xlink="http://www.w3.org/1999/xlink">
    <!-- Generator: Sketch 40.3 (33839) - http://www.bohemiancoding.com/sketch -->
    <title>ic_reactions_grey_16px</title>
    <desc>Created with Sketch.</desc>
    <defs></defs>
    <g id="Page-1" stroke="none" stroke-width="1" fill="none" fill-rule="evenodd">
        <g id="ic_reactions_grey_16px">
            <g id="Group-2">
                <g id="0:0:0:0">
                    <rect id="Rectangle-5" x="0" y="0" width="16" height="16"></rect>
                    <g id="emoticon" transform="translate(1.333333, 1.333333)"></g>
                    <path d="M14.6332705,7.33333333 C14.6554304,7.55389388 14.6666667,7.77636769 14.6666667,8 C14.6666667,11.6818983 11.6818983,14.6666667 8,14.6666667 C6.23189007,14.6666667 4.53619732,13.9642877 3.28595479,12.7140452 C2.03571227,11.4638027 1.33333333,9.76810993 1.33333333,8 C1.33333333,4.33333333 4.31333333,1.33333333 8,1.33333333 L8,1.33333333 C8.22363231,1.33333333 8.44610612,1.3445696 8.66666667,1.36672949 L8.66666667,2.70847693 C8.44668912,2.68076722 8.22407146,2.66666667 8,2.66666667 C5.05448133,2.66666667 2.66666667,5.05448133 2.66666667,8 C2.66666667,10.9455187 5.05448133,13.3333333 8,13.3333333 C10.9455187,13.3333333 13.3333333,10.9455187 13.3333333,8 C13.3333333,7.77592854 13.3192328,7.55331088 13.2915231,7.33333333 L14.6332705,7.33333333 Z M8,11.6666667 C9.55333333,11.6666667 10.8666667,10.6933333 11.4066667,9.33333333 L4.59333333,9.33333333 C5.12666667,10.6933333 6.44666667,11.6666667 8,11.6666667 Z M10.3333333,7.33333333 C10.8856181,7.33333333 11.3333333,6.88561808 11.3333333,6.33333333 C11.3333333,5.78104858 10.8856181,5.33333333 10.3333333,5.33333333 C9.78104858,5.33333333 9.33333333,5.78104858 9.33333333,6.33333333 C9.33333333,6.88561808 9.78104858,7.33333333 10.3333333,7.33333333 L10.3333333,7.33333333 Z M5.66666667,7.33333333 C6.21895142,7.33333333 6.66666667,6.88561808 6.66666667,6.33333333 C6.66666667,5.78104858 6.21895142,5.33333333 5.66666667,5.33333333 C5.11438192,5.33333333 4.66666667,5.78104858 4.66666667,6.33333333 C4.66666667,6.88561808 5.11438192,7.33333333 5.66666667,7.33333333 Z" id="Combined-Shape" fill="#99AAB5"></path>
                </g>
                <g id="Group-15" transform="translate(10.666667, 0.000000)" fill="#99AAB5">
                    <polygon id="Path" points="3.33333333 2 3.33333333 0 2 0 2 2 0 2 0 3.33333333 2 3.33333333 2 5.33333333 3.33333333 5.33333333 3.33333333 3.33333333 5.33333333 3.33333333 5.33333333 2"></polygon>
                </g>
            </g>
        </g>
    </g>
</svg>